<svg xmlns="http://www.w3.org/2000/svg" viewBox="0 0 520 210" role="img" aria-label="CHORGES Hier et Aujourd'hui">
  <defs>
    <style>
      .g{stroke:#234d35;stroke-width:7;fill:none;stroke-linecap:round;stroke-linejoin:round}
      .f{fill:#234d35}
      .title{font-family:Georgia,'Times New Roman',serif;font-size:66px;font-weight:700;letter-spacing:3px;fill:#234d35}
      .sub{font-family:Arial,Helvetica,sans-serif;font-size:26px;font-weight:600;fill:#234d35}
      .line{stroke:#234d35;stroke-width:3;opacity:.7;stroke-linecap:round}
    </style>
  </defs>
  <g transform="translate(232 5) scale(.82)">
    <path class="g" d="M55 160h120"/>
    <path class="g" d="M78 160V98h74v62"/>
    <path class="g" d="M91 98V65h48v33"/>
    <path class="g" d="M78 98h74"/>
    <path class="g" d="M91 65h48"/>
    <path class="g" d="M103 65l12-55 12 55"/>
    <path class="g" d="M115 10v-8"/>
    <path class="g" d="M108 2h14"/>
    <path class="g" d="M68 160v-38h-32v38"/>
    <path class="g" d="M162 160v-38h32v38"/>
    <path class="g" d="M36 122l32-22 10 22"/>
    <path class="g" d="M194 122l-32-22-10 22"/>
    <path class="g" d="M105 160v-28c0-12 20-12 20 0v28"/>
    <path class="g" d="M102 84c0-17 26-17 26 0v14h-26z"/>
    <circle class="f" cx="115" cy="117" r="6"/>
  </g>
  <text class="title" x="260" y="124" text-anchor="middle">CHORGES</text>
  <line class="line" x1="88" y1="153" x2="178" y2="153"/>
  <text class="sub" x="260" y="162" text-anchor="middle">Hier &amp; Aujourd’hui</text>
  <line class="line" x1="342" y1="153" x2="432" y2="153"/>
  <line class="line" x1="178" y1="190" x2="242" y2="190" opacity=".35"/>
  <circle class="f" cx="260" cy="190" r="6" opacity=".65"/>
  <line class="line" x1="278" y1="190" x2="342" y2="190" opacity=".35"/>
</svg>
